<!-- Generator: Adobe Illustrator 21.0.0, SVG Export Plug-In  -->
<svg version="1.1"
	 xmlns="http://www.w3.org/2000/svg" xmlns:xlink="http://www.w3.org/1999/xlink" xmlns:a="http://ns.adobe.com/AdobeSVGViewerExtensions/3.0/"
	 x="0px" y="0px" width="17.2px" height="17.2px" viewBox="0 0 17.2 17.2" enable-background="new 0 0 17.2 17.2"
	 xml:space="preserve">
<defs>
</defs>
<path fill="#FFFFFF" d="M14.5,0H2.7C1.2,0,0,1.2,0,2.7v2.9h4.3c0.9-1.3,2.5-2.2,4.2-2.2c1.8,0,3.3,0.9,4.2,2.2h4.3V2.7
	C17.2,1.2,16,0,14.5,0z M15.8,3.3c0,0.3-0.2,0.5-0.5,0.5h-1.4c-0.3,0-0.5-0.2-0.5-0.5V1.9c0-0.3,0.2-0.5,0.5-0.5h1.4
	c0.3,0,0.5,0.2,0.5,0.5V3.3z"/>
<path fill="#FFFFFF" d="M17.2,14.5c0,1.5-1.2,2.7-2.7,2.7H2.7C1.2,17.2,0,16,0,14.5V7.6h3.5c-0.1,0.3-0.1,0.7-0.1,1
	c0,2.9,2.3,5.2,5.2,5.2c2.9,0,5.2-2.3,5.2-5.2c0-0.3,0-0.7-0.1-1h3.5V14.5z"/>
<circle fill="#FFFFFF" cx="8.6" cy="8.6" r="3.2"/>
</svg>