<!-- Generator: Adobe Illustrator 21.0.0, SVG Export Plug-In  -->
<svg version="1.1"
	 xmlns="http://www.w3.org/2000/svg" xmlns:xlink="http://www.w3.org/1999/xlink" xmlns:a="http://ns.adobe.com/AdobeSVGViewerExtensions/3.0/"
	 x="0px" y="0px" width="20.5px" height="16.7px" viewBox="0 0 20.5 16.7" enable-background="new 0 0 20.5 16.7"
	 xml:space="preserve">
<defs>
</defs>
<path fill="#FFFFFF" d="M18.4,4.2c0,0.2,0,0.4,0,0.5c0,5.6-4.2,12-12,12c-2.4,0-4.6-0.7-6.5-1.9c0.3,0,0.7,0.1,1,0.1
	c2,0,3.8-0.7,5.2-1.8c-1.8,0-3.4-1.3-3.9-2.9c0.3,0,0.5,0.1,0.8,0.1c0.4,0,0.8-0.1,1.1-0.1C2.3,9.7,0.8,8,0.8,5.9c0,0,0,0,0-0.1
	C1.4,6.2,2,6.4,2.7,6.4c-1.1-0.8-1.9-2-1.9-3.5c0-0.8,0.2-1.5,0.6-2.1C3.5,3.3,6.6,5,10.1,5.2C10,4.9,10,4.5,10,4.2
	C10,1.9,11.9,0,14.2,0c1.2,0,2.3,0.5,3.1,1.3c1-0.2,1.9-0.5,2.7-1c-0.3,1-1,1.8-1.9,2.3C19,2.5,19.8,2.3,20.5,2
	C20,2.8,19.2,3.6,18.4,4.2z"/>
</svg>