<!-- Generator: Adobe Illustrator 21.0.0, SVG Export Plug-In  -->
<svg version="1.1"
	 xmlns="http://www.w3.org/2000/svg" xmlns:xlink="http://www.w3.org/1999/xlink" xmlns:a="http://ns.adobe.com/AdobeSVGViewerExtensions/3.0/"
	 x="0px" y="0px" width="17.5px" height="22.5px" viewBox="0 0 17.5 22.5" enable-background="new 0 0 17.5 22.5"
	 xml:space="preserve">
<defs>
</defs>
<path fill="#FFFFFF" d="M10.2,16.3c-1.4-0.1-1.9-0.8-3-1.4C6.6,18,5.9,21,3.7,22.5c-0.7-4.7,1-8.2,1.7-11.9C4.2,8.4,5.6,4,8.3,5.1
	c3.3,1.3-2.9,8.1,1.3,8.9c4.4,0.9,6.2-7.6,3.5-10.4C9.2-0.3,1.7,3.6,2.6,9.3c0.2,1.4,1.7,1.8,0.6,3.7C0.7,12.5-0.1,10.5,0,7.8
	c0.2-4.3,3.9-7.3,7.6-7.8c4.7-0.5,9.2,1.7,9.8,6.2C18.1,11.3,15.3,16.7,10.2,16.3z"/>
</svg>