<!-- Generator: Adobe Illustrator 21.0.0, SVG Export Plug-In  -->
<svg version="1.1"
	 xmlns="http://www.w3.org/2000/svg" xmlns:xlink="http://www.w3.org/1999/xlink" xmlns:a="http://ns.adobe.com/AdobeSVGViewerExtensions/3.0/"
	 x="0px" y="0px" width="27.6px" height="27.6px" viewBox="0 0 27.6 27.6" enable-background="new 0 0 27.6 27.6"
	 xml:space="preserve">
<defs>
</defs>
<g>
	<g>
		<path fill="#BABCBE" d="M27,23.3l-6.6-6.6c1-1.6,1.6-3.6,1.6-5.6c0-6-5.2-11.1-11.1-11.1C4.8,0,0,4.8,0,10.8s5.2,11.1,11.1,11.1
			c2,0,3.8-0.5,5.4-1.5l6.6,6.6c0.6,0.6,1.7,0.6,2.3,0l1.6-1.6C27.8,24.8,27.6,24,27,23.3z M3.3,10.8c0-4.1,3.3-7.5,7.5-7.5
			c4.1,0,7.8,3.7,7.8,7.8c0,4.1-3.3,7.5-7.5,7.5C7,18.6,3.3,14.9,3.3,10.8z"/>
	</g>
</g>
</svg>